<svg xmlns="http://www.w3.org/2000/svg" viewBox="161.10 0.00 67.30 47.00"><defs><linearGradient id="fx-ia" x1="0" y1="0" x2="0" y2="1"><stop offset="0" stop-color="#ED6D19"/><stop offset="1" stop-color="#E5352A"/></linearGradient></defs><g fill="url(#fx-ia)"><path d="M198.57 24.21C199.25 24.34 199.94 24.48 200.62 24.62C201.17 23.88 201.70 23.14 202.25 22.40C200.76 22.74 199.54 23.36 198.57 24.21"/><path d="M227.86 44.98L203.45 1.04C203.10 0.41 202.43 0.02 201.71 0.02L199.26 0.02C199.00 -0.01 198.74 -0.01 198.48 0.02L195.82 0.02C195.07 0.02 194.38 0.44 194.04 1.11L172.47 43.91L172.47 1.42C172.47 0.66 171.85 0.04 171.09 0.04L162.53 0.04C161.76 0.04 161.15 0.66 161.15 1.42L161.15 46.90L169.87 46.90L169.98 46.90L170.52 46.90L171.04 46.90L171.44 46.90C174.84 46.60 179.18 45.11 183.57 41.39C183.57 41.39 183.57 41.38 183.58 41.38C183.71 41.27 183.84 41.15 183.98 41.04C183.98 41.03 183.99 41.03 184.00 41.02C184.40 40.66 184.81 40.28 185.21 39.87C185.22 39.86 185.24 39.85 185.25 39.84C185.37 39.72 185.48 39.60 185.60 39.48C185.62 39.46 185.64 39.44 185.66 39.42C185.78 39.29 185.89 39.17 186.01 39.04C186.02 39.03 186.03 39.02 186.04 39.00C186.30 38.72 186.56 38.43 186.81 38.13C186.83 38.10 186.85 38.08 186.87 38.06C186.97 37.94 187.08 37.81 187.18 37.69C187.21 37.65 187.24 37.61 187.27 37.57C187.37 37.46 187.46 37.34 187.56 37.21C187.58 37.18 187.61 37.14 187.64 37.11C187.75 36.96 187.87 36.81 187.98 36.66C187.99 36.65 187.99 36.64 188.00 36.63C188.12 36.47 188.24 36.30 188.36 36.13C188.38 36.10 188.40 36.07 188.42 36.04C188.52 35.91 188.61 35.78 188.70 35.64C188.74 35.59 188.77 35.54 188.81 35.49C188.89 35.37 188.97 35.24 189.05 35.12C189.09 35.06 189.12 35.01 189.16 34.96C189.24 34.82 189.33 34.69 189.41 34.55C189.44 34.51 189.47 34.47 189.49 34.43C189.60 34.25 189.71 34.07 189.82 33.88C189.84 33.85 189.86 33.82 189.88 33.79C189.97 33.64 190.06 33.49 190.15 33.33C190.18 33.27 190.21 33.21 190.25 33.14C190.32 33.01 190.39 32.88 190.47 32.75C190.50 32.69 190.54 32.62 190.58 32.55C190.65 32.41 190.72 32.28 190.79 32.14C190.82 32.08 190.86 32.02 190.89 31.96C190.99 31.76 191.09 31.56 191.19 31.35C191.19 31.35 187.74 32.61 183.46 31.28C183.46 31.28 187.83 30.51 193.75 25.57C201.32 19.25 206.00 17.85 209.91 19.87C208.13 19.83 204.35 22.85 201.90 31.66C200.74 35.84 200.94 40.44 203.69 44.15C202.67 41.42 202.39 37.68 204.82 33.19C204.82 33.19 205.77 46.01 224.64 46.91L226.77 46.91C227.76 46.91 228.37 45.83 227.86 44.98"/></g></svg>